<?xml version="1.0" encoding="UTF-8"?>
<svg xmlns="http://www.w3.org/2000/svg" version="1.1" xmlns:xlink="http://www.w3.org/1999/xlink" viewBox="0 0 845.1 890.4">
  <defs>
    <style>
      .cls-1 {
        fill: #000;
      }

      .cls-1, .cls-2, .cls-3 {
        stroke-width: 0px;
      }

      .cls-2 {
        fill: #e83818;
      }

      .cls-4 {
        fill: none;
        stroke: #e83818;
        stroke-miterlimit: 10;
        stroke-width: 3px;
      }

      .cls-3 {
        fill: #fff;
      }

      .cls-5 {
        display: none;
      }

      .cls-6 {
        font-size: 18px;
      }

      .cls-6, .cls-7 {
        fill: #231815;
        font-family: AdobeSongStd-Light-GBpc-EUC-H, 'Adobe Song Std';
        font-weight: 300;
      }

      .cls-7 {
        font-size: 12px;
      }
    </style>
  </defs>
  <g id="_图层_1" data-name="图层 1" class="cls-5">
    <image width="1080" height="2520" transform="translate(54.7 8.9) scale(.3)" xlink:href="C:\Users\lizih\OneDrive\文档\xwechat_files\lzh199616_a899\temp\RWTemp\2026-06\9e20f478899dc29eb19741386f9343c8\885bf34109c2ade6273ca461f144b23c.jpg"/>
    <rect class="cls-4" x="235" y="371.1" width="163.1" height="71.1"/>
    <g>
      <line class="cls-4" x1="406.5" y1="394.1" x2="494.9" y2="394.1"/>
      <path class="cls-2" d="M474.4,408.5c-.4-.7-.2-1.6.5-2.1l19.4-12.3-19.4-12.3c-.7-.4-.9-1.4-.5-2.1.4-.7,1.4-.9,2.1-.5l21.3,13.6c.4.3.7.8.7,1.3s-.3,1-.7,1.3l-21.3,13.6c-.2.2-.5.2-.8.2-.5,0-1-.2-1.3-.7Z"/>
    </g>
    <rect class="cls-4" x="235" y="299.2" width="163.1" height="35.5"/>
    <rect class="cls-4" x="235" y="448.5" width="163.1" height="22.9"/>
    <g>
      <line class="cls-4" x1="406.5" y1="318.6" x2="494.9" y2="318.6"/>
      <path class="cls-2" d="M474.4,333c-.4-.7-.2-1.6.5-2.1l19.4-12.3-19.4-12.3c-.7-.4-.9-1.4-.5-2.1.4-.7,1.4-.9,2.1-.5l21.3,13.6c.4.3.7.8.7,1.3s-.3,1-.7,1.3l-21.3,13.6c-.2.2-.5.2-.8.2-.5,0-1-.2-1.3-.7Z"/>
    </g>
    <text class="cls-7" transform="translate(505 397.3)"><tspan x="0" y="0">太拥挤</tspan></text>
    <text class="cls-7" transform="translate(506.9 324)"><tspan x="0" y="0">空着干嘛？</tspan></text>
    <g>
      <line class="cls-4" x1="406.5" y1="459" x2="494.9" y2="459"/>
      <path class="cls-2" d="M474.4,473.4c-.4-.7-.2-1.6.5-2.1l19.4-12.3-19.4-12.3c-.7-.4-.9-1.4-.5-2.1.4-.7,1.4-.9,2.1-.5l21.3,13.6c.4.3.7.8.7,1.3s-.3,1-.7,1.3l-21.3,13.6c-.2.2-.5.2-.8.2-.5,0-1-.2-1.3-.7Z"/>
    </g>
    <text class="cls-7" transform="translate(506.9 464.3)"><tspan x="0" y="0">空着干嘛？</tspan></text>
    <rect class="cls-4" x="69.7" y="286.5" width="510.7" height="202.2"/>
    <text class="cls-6" transform="translate(590.8 344.2)"><tspan x="0" y="0">不要浪费小组件的空间，要让</tspan><tspan x="0" y="21.6">button和字体更加可点击</tspan></text>
  </g>
  <g id="_图层_2" data-name="图层 2">
    <g>
      <path class="cls-1" d="M373.9,422.9c4.8-7.4,9.2-14,13.6-20.7,39.6-61.2,82.9-119.6,134.1-171.8,22-22.4,44.9-43.7,71.8-60.3,12.2-7.6,24.9-14.1,39.3-16.7,9.9-1.7,18.6,3.8,21.2,13.1,2.8,9.7-1.9,20.4-11.6,23-27.7,7.2-48.6,25.1-69.3,43.1-35.2,30.7-65.7,65.8-93.4,103.2-24.7,33.4-47.9,68.1-71.7,102.2-2.6,3.7-5,7.5-8,10.8-16.4,18.6-41.1,17.5-55.4-2.8-20.9-29.6-44-57.4-70.2-82.4-4.7-4.5-9.5-8.9-14.6-12.8-9.6-7.4-11.8-19.2-5-28.1,6.8-8.7,19.3-9.6,28.4-1.9,22.2,18.8,42.3,39.7,60.5,62.3,9,11.1,17.4,22.8,26,34.2,1.2,1.6,2.4,3.1,4.2,5.5Z"/>
      <path class="cls-1" d="M441,686.7c-6.9,3.9-11.2,8.6-10.1,16.9.6,4.4.2,9,.3,13.5.2,7.1-4.1,12.3-10.5,12.9-6.3.6-11.8-4-12.1-11.2-.4-11-1-22.1,0-33,2.5-27.3,5.7-54.6,8.9-81.9,1.2-10.3,11.4-14.9,19-8.9,3.9,3.1,4.5,7.2,3.9,11.7-1.9,14.2-3.7,28.4-5.6,42.6-.5,4.3-.9,8.6-1.5,13.9,2.1-1.5,3.4-2.5,4.8-3.5,13-8.7,25.9-17.5,39.1-25.9,2.6-1.6,5.8-2.6,8.9-2.9,5.9-.6,10.8,3.3,12,9,1.1,5-2,9.7-7,12.5-10.8,5.9-21.3,12.1-33,18.8,13.9,12.5,26.5,24.3,39.6,35.5,5.5,4.7,7.1,11.4,2.7,17.1-4.1,5.4-12.6,6.2-18.3,1.2-8.8-7.9-17.2-16.3-25.8-24.3-5.1-4.7-10.4-9.3-15.5-13.8Z"/>
      <path class="cls-1" d="M597.5,697.2c2.9,5.4,7.1,8.2,12.1,9.9,15.1,5.1,29.9,2.7,44.4-2.7,1.4-.5,2.7-1.2,4.1-1.8,6.1-2.3,11.9-.3,14.5,5,2.5,5.2.7,12.2-4.6,14.8-22.7,10.7-46.1,14.6-70,4.5-20.1-8.5-29.3-29-23.8-50.3,6.1-23.6,25.3-40.3,48.6-42.2,18-1.5,33.4,9.9,35.2,25.9,1.3,11.8-6.3,24.1-19.2,30.7-11.1,5.7-23,7.6-35.3,6.6-1.7-.1-3.5-.3-5.9-.5ZM598.7,675.5c12,2.4,24.3.7,31.2-5.1,2.4-2,4.7-5.7,4.5-8.5-.2-4.3-4.6-5-8.4-5.2-11-.5-22.9,7.5-27.3,18.7Z"/>
      <path class="cls-1" d="M196,641.1c11-3.1,21-6,31.1-8.7,3.2-.8,6.6-1.5,9.8-1.1,5.5.7,9.2,5.5,9.3,10.8.1,5.3-3.6,9.6-9.5,11.3-13.4,3.8-26.8,7.8-40.2,11.5-2.9.8-4.7,2.2-4.7,5.4.1,10.6-.9,21.4.7,31.8,2,13.3,12.6,16.4,23.1,7.9,1.4-1.1,2.7-2.5,4-3.8,4.4-4.4,10.3-5.1,14.9-1.6,4.2,3.1,5.9,9.8,2.8,14.4-11.2,16.4-39.8,28.3-58.2,8.3-7.4-8-10.1-18.3-10.8-28.9-.5-7.6,0-15.3,0-23.5-5.3,1.6-9.8,3.1-14.4,4.4-7.2,2-13.1-1.1-14.9-7.7-1.8-6.4,2-12.2,9.1-14.2,6.7-1.9,13.4-4,19.9-6.4,1.5-.5,3.1-2.5,3.4-4,2.4-11.2,4.5-22.5,6.7-33.8,1.6-7.9,7.5-12,14.8-10.2,6.5,1.6,9.5,7.7,7.9,15.4-1.6,7.3-3,14.6-4.6,22.9Z"/>
      <path class="cls-1" d="M407.4,525.3c-6.1-.9-13.7-1.8-21.2-3.3-7.5-1.5-11.8-8.2-10.9-15.6,1-7.6,6.6-12.7,14.3-12.6,2.6,0,5.3.6,7.9,1,25.9,4.1,47.7-5.2,66.4-21.8,8.6-7.6,15.5-17.3,22.4-26.6,5.3-7.2,13.5-10.3,20.7-6.2,7.2,4.1,10.1,12.9,5.4,20.3-24,38.2-56.9,62.3-105.1,64.6Z"/>
      <path class="cls-1" d="M351,725.1c-29.2,0-48.3-22-44.2-50.9,3.1-22.1,18.9-41.1,38.6-45.8,11.2-2.7,21.8-1.2,29.7,7.9,2.7,3.2,4.4,7.8,5.1,12,.9,5.2-3.1,9.8-8,11.2-4.5,1.3-9.2-.5-11.7-5.3-2.4-4.6-6-4.9-10.1-3.9-15.4,3.7-26,26.9-18.7,41,3.2,6.2,8.6,9.6,15.4,10.6,8,1.3,15.6-.5,22.7-4.2,2.2-1.1,4.3-2.5,6.5-3.8,6.1-3.6,11.7-2.7,15.4,2.5,3.6,5,2.4,11.6-3,15.9-9.2,7.4-24.7,12.6-37.7,12.6Z"/>
      <path class="cls-1" d="M310.6,229.4c-19.5.3-35.7-15.6-35.9-35.2-.2-19.6,15.5-35.8,35-36.3,19.7-.4,36.1,15.5,36.4,35.4.3,19.8-15.4,35.8-35.5,36.1Z"/>
      <path class="cls-1" d="M504.3,188.7c0,18.8-16.1,34.8-35.2,35-19.3.2-35.4-15.7-35.6-35.1-.1-19.9,15.5-35.8,35.2-35.9,19.9-.1,35.5,15.6,35.6,36Z"/>
      <path class="cls-1" d="M519.4,688c.4-23.6,3.8-44.1,8.3-64.5,3.1-13.6,6.3-27.2,9.6-40.8,1.7-7,8-10.9,14.8-9.1,6.6,1.7,9.8,7.4,8.2,14.8-4.8,21.9-10.4,43.8-14.2,65.9-2.3,13-2.1,26.5-2.7,39.8-.1,3.1.4,6.5,1.7,9.2,1.1,2.2,3.6,4.4,5.9,5.1,6,1.8,8.8,4.1,9.3,9.4.5,5.5-2.3,10.2-7.5,12.3-5.1,2-10.1,1.5-15-.7-10.4-4.6-14.6-13.7-16.5-24.1-1.2-6.5-1.5-13.2-1.9-17.2Z"/>
      <path class="cls-1" d="M273.9,637.7c7.7,0,12.1,6,11.3,14.2-1.5,15.7-2.7,31.5-3.6,47.3-.3,4.4.6,9,1.4,13.4,1.4,7.6-1.9,13.3-8.9,14.8-6.5,1.4-13.4-3-13.8-10.3-.7-15.3-.8-30.6-.6-45.8.1-7.6,1.5-15.2,2.4-22.8.8-6.6,5.3-10.6,11.7-10.7Z"/>
      <path class="cls-1" d="M277.7,619.1c-7.2,0-12.5-5.1-12.5-12.1,0-7.2,5.4-12.8,12.5-12.8,7.2,0,12.8,5.7,12.6,12.7-.1,6.8-5.7,12.2-12.6,12.2Z"/>
      <path class="cls-3" d="M598.7,675.5c4.4-11.2,16.3-19.3,27.3-18.7,3.8.2,8.2.9,8.4,5.2.1,2.8-2.2,6.5-4.5,8.5-7,5.8-19.3,7.5-31.2,5.1Z"/>
    </g>
  </g>
</svg>